<?xml version="1.0" encoding="utf-8"?><!DOCTYPE svg PUBLIC "-//W3C//DTD SVG 1.1//EN" "http://www.w3.org/Graphics/SVG/1.1/DTD/svg11.dtd"><svg xmlns="http://www.w3.org/2000/svg" xmlns:xlink="http://www.w3.org/1999/xlink" width="158" height="45" viewBox="0 0 158 45" enable-background="new 0 0 158 45" xml:space="preserve"><g><g><path fill="#EF005C" d="M31.794,1.988C28.974,0.715,25.847,0,22.551,0s-6.423,0.715-9.243,1.988c3.255,1.003,6.349,2.373,9.243,4.047c6.826,3.951,12.515,9.639,16.465,16.465c1.675-2.895,3.045-5.987,4.048-9.243C40.809,8.263,36.788,4.242,31.794,1.988z"/><path fill="#FF9D00" d="M13.308,1.988c-4.994,2.254-9.016,6.275-11.27,11.27c-1.273,2.82-1.987,5.947-1.987,9.243c0,3.296,0.714,6.423,1.987,9.244c1.002-3.256,2.373-6.349,4.048-9.244c3.951-6.826,9.639-12.515,16.465-16.465C19.657,4.36,16.563,2.991,13.308,1.988z"/><path fill="#00C3FF" d="M43.064,13.257c-1.003,3.256-2.373,6.348-4.048,9.243c-3.95,6.826-9.639,12.515-16.465,16.466c2.894,1.674,5.987,3.043,9.243,4.047c4.994-2.254,9.015-6.275,11.27-11.27c1.273-2.82,1.987-5.947,1.987-9.244C45.051,19.205,44.337,16.078,43.064,13.257z"/><linearGradient id="SVGID_1_" gradientUnits="userSpaceOnUse" x1="30.4385" y1="1.4834" x2="28.915" y2="6.757"><stop offset="0.0043" style="stop-color:#FFFFFF"/><stop offset="1" style="stop-color:#EF005C"/></linearGradient><path opacity="0.5" fill="url(#SVGID_1_)" d="M39.005,21.439c-3.971-6.551-9.551-12.023-16.188-15.864c-2.552-1.478-5.23-2.702-7.976-3.647c2.464-0.927,5.052-1.396,7.71-1.396c3.136,0,6.172,0.652,9.025,1.94c4.828,2.179,8.698,6.017,10.92,10.821C41.62,16.091,40.448,18.826,39.005,21.439z"/><linearGradient id="SVGID_2_" gradientUnits="userSpaceOnUse" x1="-162.562" y1="-398.5156" x2="-164.0855" y2="-393.2421" gradientTransform="matrix(0 -1 1 0 400.0508 -147.9492)"><stop offset="0.0043" style="stop-color:#FFFFFF"/><stop offset="1" style="stop-color:#FF9D00"/></linearGradient><path opacity="0.5" fill="url(#SVGID_2_)" d="M21.49,6.046c-6.552,3.97-12.024,9.551-15.864,16.188c-1.478,2.553-2.702,5.23-3.646,7.977c-0.928-2.465-1.397-5.051-1.397-7.71c0-3.136,0.652-6.172,1.94-9.025C4.702,8.648,8.54,4.777,13.344,2.556C16.142,3.432,18.877,4.604,21.49,6.046z"/><linearGradient id="SVGID_3_" gradientUnits="userSpaceOnUse" x1="430.4395" y1="-191.5176" x2="428.916" y2="-186.244" gradientTransform="matrix(0 1 -1 0 -147.9492 -400.0508)"><stop offset="0.0043" style="stop-color:#FFFFFF"/><stop offset="1" style="stop-color:#00C3FF"/></linearGradient><path opacity="0.5" fill="url(#SVGID_3_)" d="M23.612,38.955c6.552-3.971,12.024-9.551,15.864-16.188c1.477-2.553,2.702-5.23,3.646-7.977c0.928,2.464,1.397,5.052,1.397,7.71c0,3.136-0.652,6.171-1.94,9.025c-2.179,4.828-6.017,8.699-10.822,10.92C28.96,41.568,26.226,40.396,23.612,38.955z"/><path fill="#3E8E00" d="M22.551,38.967C15.725,35.016,10.037,29.326,6.086,22.5c-1.675,2.895-3.045,5.988-4.048,9.244c2.254,4.994,6.276,9.016,11.27,11.27C16.128,44.287,19.255,45,22.551,45s6.422-0.713,9.243-1.986C28.539,42.01,25.445,40.641,22.551,38.967z"/><linearGradient id="SVGID_4_" gradientUnits="userSpaceOnUse" x1="237.4385" y1="-591.5171" x2="235.915" y2="-586.2433" gradientTransform="matrix(-1 0 0 -1 252.1016 -548)"><stop offset="0.0043" style="stop-color:#FFFFFF"/><stop offset="1" style="stop-color:#3E8E00"/></linearGradient><path opacity="0.5" fill="url(#SVGID_4_)" d="M6.097,23.562c3.97,6.552,9.551,12.022,16.188,15.864c2.553,1.477,5.23,2.701,7.976,3.646c-2.463,0.928-5.051,1.396-7.709,1.396c-3.136,0-6.172-0.652-9.025-1.939c-4.828-2.18-8.699-6.018-10.921-10.822C3.482,28.91,4.654,26.176,6.097,23.562z"/><g><path fill="#347000" d="M6.086,22.5c-1.675,2.895-3.045,5.988-4.048,9.244c1.588-2.531,3.429-4.854,5.451-6.983C7.001,24.021,6.531,23.27,6.086,22.5z"/></g><g><path fill="#00ABD3" d="M22.551,38.967c2.894,1.674,5.987,3.043,9.243,4.047c-2.531-1.588-4.854-3.43-6.983-5.451C24.072,38.051,23.32,38.521,22.551,38.967z"/></g><g><path fill="#C90052" d="M39.016,22.5c1.675-2.894,3.045-5.987,4.048-9.243c-1.588,2.531-3.429,4.854-5.451,6.983C38.102,20.979,38.571,21.731,39.016,22.5z"/></g><g><path fill="#FF7300" d="M22.551,6.035c-2.895-1.675-5.988-3.044-9.243-4.048c2.53,1.588,4.854,3.43,6.983,5.451C21.03,6.95,21.782,6.48,22.551,6.035z"/></g><path fill="#FFFFFF" d="M22.551,0.532c0,0,0.582-0.03,1.455,0.003c0.873,0.033,2.036,0.165,3.178,0.407c1.142,0.246,2.252,0.607,3.063,0.934c0.811,0.327,1.329,0.595,1.329,0.595s-2.151-0.909-4.425-1.377C24.886,0.588,22.551,0.532,22.551,0.532z"/><path fill="#FFFFFF" d="M0.583,22.5c0,0-0.03-0.582,0.003-1.455c0.033-0.872,0.165-2.037,0.407-3.178c0.246-1.143,0.608-2.252,0.934-3.064c0.328-0.811,0.596-1.328,0.596-1.328s-0.91,2.151-1.377,4.425C0.638,20.166,0.583,22.5,0.583,22.5z"/><path fill="#FFFFFF" d="M22.551,44.469c0,0-0.582,0.031-1.456-0.004c-0.872-0.031-2.037-0.164-3.177-0.406c-1.143-0.246-2.252-0.607-3.064-0.934c-0.812-0.33-1.328-0.596-1.328-0.596s2.151,0.908,4.425,1.377C20.217,44.414,22.551,44.469,22.551,44.469z"/><path fill="#FFFFFF" d="M44.52,22.5c0,0,0.031,0.582-0.003,1.455c-0.032,0.873-0.165,2.037-0.407,3.178c-0.246,1.145-0.607,2.252-0.934,3.064c-0.327,0.811-0.595,1.328-0.595,1.328s0.909-2.152,1.377-4.426C44.465,24.836,44.52,22.5,44.52,22.5z"/></g><g><path d="M63.211,16.397c0,0.732-0.124,1.404-0.373,2.014s-0.604,1.135-1.068,1.575c-0.464,0.439-1.03,0.781-1.697,1.025c-0.667,0.244-1.473,0.366-2.417,0.366h-2.051v6.042c0,0.049-0.012,0.094-0.037,0.135c-0.024,0.041-0.065,0.072-0.122,0.098c-0.057,0.025-0.132,0.045-0.227,0.061c-0.093,0.016-0.213,0.023-0.359,0.023c-0.139,0-0.256-0.008-0.354-0.023c-0.098-0.016-0.175-0.035-0.231-0.061c-0.057-0.025-0.098-0.057-0.123-0.098c-0.024-0.041-0.036-0.086-0.036-0.135V12.637c0-0.293,0.078-0.495,0.231-0.604c0.155-0.109,0.305-0.165,0.452-0.165h3.21c0.317,0,0.627,0.014,0.927,0.043c0.301,0.028,0.653,0.089,1.056,0.183c0.403,0.094,0.814,0.269,1.233,0.525c0.419,0.256,0.775,0.57,1.068,0.94c0.293,0.37,0.519,0.793,0.677,1.269C63.131,15.304,63.211,15.828,63.211,16.397z M61.636,16.531c0-0.684-0.135-1.263-0.403-1.739c-0.268-0.477-0.596-0.83-0.982-1.062c-0.386-0.232-0.789-0.379-1.208-0.44c-0.419-0.061-0.816-0.091-1.19-0.091h-2.246v6.86h2.148c0.691,0,1.269-0.087,1.733-0.262c0.464-0.175,0.854-0.417,1.171-0.727c0.318-0.309,0.56-0.681,0.727-1.117C61.553,17.518,61.636,17.044,61.636,16.531z"/><path d="M71.803,16.934c0,0.122-0.005,0.226-0.013,0.312s-0.022,0.155-0.043,0.207c-0.021,0.053-0.044,0.094-0.073,0.123c-0.028,0.028-0.066,0.042-0.115,0.042c-0.074,0-0.158-0.018-0.257-0.055c-0.098-0.037-0.212-0.075-0.342-0.116c-0.13-0.04-0.272-0.079-0.427-0.115c-0.154-0.037-0.326-0.056-0.514-0.056c-0.219,0-0.436,0.048-0.646,0.141c-0.212,0.093-0.434,0.244-0.666,0.451c-0.231,0.208-0.476,0.482-0.732,0.824c-0.256,0.342-0.539,0.761-0.848,1.257v7.471c0,0.049-0.012,0.094-0.037,0.135c-0.023,0.041-0.063,0.072-0.115,0.098c-0.054,0.025-0.127,0.045-0.221,0.061c-0.093,0.016-0.213,0.023-0.359,0.023c-0.139,0-0.254-0.008-0.348-0.023s-0.17-0.035-0.227-0.061s-0.096-0.057-0.115-0.098c-0.021-0.041-0.031-0.086-0.031-0.135V16.372c0-0.048,0.011-0.093,0.031-0.134c0.02-0.041,0.059-0.075,0.115-0.104c0.057-0.028,0.129-0.049,0.215-0.061c0.085-0.012,0.197-0.018,0.335-0.018c0.139,0,0.252,0.006,0.341,0.018c0.09,0.012,0.16,0.033,0.209,0.061c0.048,0.029,0.084,0.063,0.104,0.104c0.02,0.041,0.029,0.085,0.029,0.134v1.746c0.318-0.464,0.611-0.838,0.88-1.123c0.269-0.285,0.524-0.507,0.769-0.666c0.244-0.158,0.482-0.266,0.715-0.323s0.47-0.085,0.714-0.085c0.105,0,0.228,0.006,0.366,0.019s0.287,0.035,0.445,0.067s0.301,0.071,0.428,0.116c0.126,0.045,0.213,0.085,0.262,0.122c0.049,0.037,0.082,0.069,0.099,0.098c0.017,0.028,0.03,0.065,0.042,0.109c0.013,0.045,0.021,0.106,0.025,0.183C71.801,16.712,71.803,16.812,71.803,16.934z"/><path d="M82.957,21.78c0,0.879-0.113,1.688-0.342,2.43c-0.227,0.741-0.566,1.384-1.018,1.929c-0.455,0.545-1.018,0.971-1.691,1.275c-0.676,0.305-1.463,0.457-2.357,0.457c-0.861,0-1.617-0.137-2.264-0.408s-1.188-0.662-1.623-1.172c-0.436-0.51-0.762-1.125-0.978-1.85s-0.323-1.542-0.323-2.454c0-0.879,0.111-1.688,0.336-2.429c0.224-0.741,0.562-1.381,1.013-1.923c0.452-0.541,1.017-0.962,1.69-1.264c0.676-0.3,1.467-0.451,2.369-0.451c0.861,0,1.617,0.134,2.264,0.403c0.648,0.269,1.186,0.657,1.617,1.166s0.758,1.125,0.977,1.849S82.957,20.877,82.957,21.78zM81.418,21.915c0-0.626-0.061-1.225-0.184-1.794c-0.119-0.569-0.324-1.072-0.609-1.508c-0.283-0.435-0.666-0.781-1.146-1.037c-0.48-0.257-1.08-0.385-1.795-0.385c-0.658,0-1.229,0.118-1.709,0.354c-0.48,0.236-0.873,0.563-1.178,0.982c-0.306,0.419-0.531,0.914-0.678,1.483c-0.146,0.57-0.221,1.184-0.221,1.843c0,0.635,0.063,1.239,0.184,1.813c0.123,0.574,0.326,1.076,0.609,1.508c0.287,0.432,0.67,0.773,1.15,1.025c0.479,0.254,1.078,0.379,1.793,0.379c0.66,0,1.229-0.117,1.709-0.355c0.48-0.234,0.873-0.561,1.178-0.977c0.305-0.414,0.531-0.905,0.678-1.477C81.348,23.201,81.418,22.582,81.418,21.915z"/><path d="M94.441,16.739c0,0.228-0.035,0.387-0.109,0.476c-0.074,0.09-0.168,0.134-0.281,0.134h-1.746c0.342,0.35,0.582,0.73,0.715,1.142c0.135,0.411,0.201,0.844,0.201,1.3c0,0.627-0.1,1.185-0.299,1.672c-0.199,0.488-0.482,0.901-0.85,1.239c-0.365,0.337-0.799,0.597-1.305,0.774c-0.506,0.18-1.061,0.269-1.674,0.269c-0.496,0-0.967-0.067-1.414-0.207c-0.447-0.138-0.799-0.309-1.051-0.513c-0.162,0.162-0.297,0.351-0.402,0.562c-0.107,0.212-0.158,0.456-0.158,0.732c0,0.31,0.148,0.569,0.445,0.781s0.682,0.326,1.152,0.342l2.992,0.122c0.506,0.017,0.979,0.086,1.422,0.207c0.443,0.123,0.83,0.305,1.166,0.543c0.332,0.242,0.596,0.535,0.793,0.885c0.195,0.352,0.293,0.762,0.293,1.234c0,0.488-0.102,0.955-0.299,1.402c-0.199,0.449-0.508,0.84-0.928,1.18c-0.42,0.338-0.955,0.605-1.605,0.805c-0.652,0.199-1.43,0.301-2.332,0.301c-0.863,0-1.598-0.076-2.203-0.229c-0.605-0.15-1.102-0.357-1.488-0.621c-0.387-0.266-0.668-0.576-0.842-0.934c-0.178-0.357-0.264-0.744-0.264-1.16c0-0.285,0.033-0.553,0.098-0.807c0.064-0.252,0.166-0.492,0.299-0.719c0.135-0.229,0.299-0.447,0.5-0.66c0.199-0.211,0.43-0.428,0.689-0.646c-0.414-0.211-0.721-0.467-0.914-0.77c-0.197-0.301-0.293-0.622-0.293-0.964c0-0.504,0.096-0.95,0.293-1.337c0.193-0.386,0.432-0.734,0.709-1.043c-0.238-0.309-0.422-0.647-0.551-1.013c-0.129-0.367-0.197-0.806-0.197-1.319c0-0.618,0.104-1.173,0.307-1.666c0.203-0.492,0.488-0.91,0.85-1.251s0.793-0.604,1.299-0.787c0.504-0.183,1.059-0.275,1.66-0.275c0.316,0,0.615,0.019,0.898,0.055c0.281,0.037,0.537,0.084,0.775,0.141h3.258c0.139,0,0.238,0.053,0.299,0.159C94.412,16.381,94.441,16.535,94.441,16.739zM92.879,28.518c0-0.535-0.219-0.947-0.652-1.232c-0.436-0.285-1.02-0.438-1.752-0.463l-3.211-0.111c-0.293,0.23-0.531,0.445-0.719,0.648s-0.338,0.4-0.447,0.592s-0.184,0.379-0.227,0.561c-0.039,0.184-0.061,0.369-0.061,0.557c0,0.602,0.305,1.057,0.91,1.367c0.605,0.309,1.451,0.463,2.531,0.463c0.684,0,1.256-0.066,1.717-0.201c0.461-0.133,0.832-0.311,1.117-0.531c0.283-0.219,0.486-0.471,0.609-0.756S92.879,28.828,92.879,28.518z M91.719,19.815c0-0.838-0.229-1.493-0.689-1.965c-0.459-0.472-1.113-0.708-1.959-0.708c-0.432,0-0.811,0.073-1.137,0.219c-0.324,0.147-0.592,0.347-0.805,0.599c-0.211,0.252-0.369,0.545-0.475,0.878c-0.105,0.334-0.158,0.688-0.158,1.063c0,0.814,0.229,1.455,0.688,1.922c0.461,0.468,1.105,0.702,1.936,0.702c0.439,0,0.824-0.073,1.154-0.22c0.328-0.146,0.6-0.344,0.811-0.592c0.213-0.249,0.371-0.538,0.477-0.867S91.719,20.173,91.719,19.815z"/><path d="M102.814,16.934c0,0.122-0.004,0.226-0.014,0.312c-0.006,0.085-0.021,0.155-0.043,0.207c-0.02,0.053-0.045,0.094-0.074,0.123c-0.027,0.028-0.066,0.042-0.115,0.042c-0.072,0-0.158-0.018-0.254-0.055c-0.1-0.037-0.213-0.075-0.342-0.116c-0.131-0.04-0.273-0.079-0.428-0.115c-0.156-0.037-0.326-0.056-0.514-0.056c-0.219,0-0.436,0.048-0.646,0.141s-0.434,0.244-0.666,0.451c-0.232,0.208-0.475,0.482-0.732,0.824c-0.258,0.342-0.539,0.761-0.85,1.257v7.471c0,0.049-0.01,0.094-0.035,0.135s-0.063,0.072-0.117,0.098c-0.053,0.025-0.125,0.045-0.219,0.061s-0.215,0.023-0.359,0.023c-0.139,0-0.254-0.008-0.348-0.023s-0.17-0.035-0.227-0.061c-0.059-0.025-0.096-0.057-0.115-0.098c-0.021-0.041-0.031-0.086-0.031-0.135V16.372c0-0.048,0.01-0.093,0.031-0.134c0.02-0.041,0.057-0.075,0.115-0.104c0.057-0.028,0.127-0.049,0.213-0.061s0.199-0.018,0.338-0.018c0.137,0,0.25,0.006,0.342,0.018c0.088,0.012,0.158,0.033,0.205,0.061c0.049,0.029,0.084,0.063,0.105,0.104c0.02,0.041,0.031,0.085,0.031,0.134v1.746c0.316-0.464,0.609-0.838,0.877-1.123c0.27-0.285,0.525-0.507,0.77-0.666c0.244-0.158,0.482-0.266,0.715-0.323c0.23-0.057,0.469-0.085,0.713-0.085c0.105,0,0.229,0.006,0.367,0.019c0.137,0.012,0.285,0.035,0.445,0.067s0.301,0.071,0.428,0.116c0.125,0.045,0.213,0.085,0.262,0.122c0.049,0.037,0.08,0.069,0.098,0.098c0.016,0.028,0.031,0.065,0.043,0.109c0.012,0.045,0.02,0.106,0.023,0.183C102.813,16.712,102.814,16.812,102.814,16.934z"/><path d="M113.32,21.329c0,0.293-0.078,0.494-0.232,0.604c-0.154,0.11-0.303,0.165-0.451,0.165h-7.529c0,0.684,0.066,1.303,0.201,1.855c0.133,0.555,0.355,1.027,0.662,1.422c0.311,0.395,0.713,0.699,1.209,0.91s1.107,0.316,1.834,0.316c0.512,0,0.971-0.045,1.377-0.133c0.408-0.09,0.76-0.189,1.059-0.301c0.297-0.109,0.539-0.209,0.73-0.297c0.191-0.09,0.328-0.137,0.408-0.137c0.049,0,0.094,0.014,0.135,0.037c0.041,0.025,0.072,0.064,0.098,0.117s0.043,0.119,0.057,0.201c0.01,0.08,0.018,0.182,0.018,0.305c0,0.059-0.004,0.113-0.014,0.166c-0.006,0.051-0.018,0.102-0.029,0.145c-0.014,0.045-0.031,0.09-0.057,0.129c-0.023,0.041-0.055,0.082-0.096,0.123s-0.168,0.111-0.379,0.213c-0.213,0.102-0.488,0.205-0.83,0.305c-0.342,0.104-0.738,0.193-1.189,0.275c-0.453,0.08-0.939,0.121-1.461,0.121c-0.854,0-1.609-0.127-2.27-0.385c-0.658-0.256-1.213-0.635-1.66-1.135s-0.787-1.121-1.02-1.861s-0.348-1.599-0.348-2.576c0-0.936,0.121-1.774,0.359-2.515c0.242-0.741,0.586-1.369,1.033-1.886c0.445-0.517,0.986-0.912,1.617-1.185c0.631-0.272,1.332-0.409,2.105-0.409c0.83,0,1.539,0.139,2.125,0.415c0.584,0.276,1.068,0.649,1.445,1.117c0.379,0.468,0.654,1.012,0.83,1.63c0.176,0.618,0.262,1.269,0.262,1.953V21.329zM111.82,20.901c0.023-1.172-0.244-2.087-0.805-2.747c-0.564-0.659-1.381-0.989-2.455-0.989c-0.553,0-1.041,0.104-1.459,0.311c-0.42,0.208-0.773,0.482-1.063,0.824s-0.51,0.738-0.664,1.19c-0.154,0.451-0.244,0.921-0.268,1.41H111.82z"/><path d="M122.537,24.479c0,0.529-0.1,1.003-0.295,1.422c-0.195,0.42-0.475,0.775-0.836,1.068c-0.363,0.293-0.797,0.518-1.301,0.672s-1.063,0.23-1.672,0.23c-0.383,0-0.744-0.029-1.086-0.092c-0.342-0.061-0.652-0.137-0.928-0.23c-0.277-0.094-0.512-0.193-0.703-0.301c-0.189-0.104-0.332-0.197-0.42-0.279c-0.09-0.082-0.154-0.184-0.195-0.305c-0.043-0.123-0.063-0.285-0.063-0.488c0-0.107,0.01-0.199,0.025-0.281c0.018-0.081,0.037-0.15,0.063-0.207c0.021-0.058,0.055-0.1,0.096-0.129c0.043-0.027,0.084-0.043,0.135-0.043c0.088,0,0.221,0.058,0.391,0.172c0.172,0.113,0.385,0.238,0.641,0.371c0.258,0.135,0.561,0.26,0.916,0.373c0.354,0.113,0.762,0.17,1.227,0.17c0.373,0,0.715-0.039,1.027-0.121c0.307-0.082,0.576-0.203,0.803-0.367c0.229-0.162,0.404-0.371,0.533-0.629c0.125-0.256,0.188-0.555,0.188-0.896s-0.08-0.631-0.244-0.866c-0.162-0.236-0.375-0.442-0.641-0.616c-0.264-0.175-0.566-0.33-0.902-0.465c-0.338-0.134-0.686-0.272-1.037-0.415c-0.355-0.142-0.703-0.299-1.039-0.47c-0.338-0.171-0.641-0.378-0.904-0.623c-0.264-0.244-0.477-0.537-0.641-0.879c-0.162-0.342-0.244-0.752-0.244-1.233c0-0.382,0.074-0.759,0.219-1.129c0.148-0.37,0.375-0.702,0.68-0.995s0.695-0.529,1.172-0.708c0.475-0.179,1.039-0.269,1.691-0.269c0.275,0,0.549,0.022,0.822,0.067c0.275,0.045,0.52,0.104,0.746,0.177c0.223,0.073,0.416,0.152,0.578,0.238c0.164,0.085,0.289,0.161,0.373,0.226c0.086,0.065,0.141,0.121,0.17,0.165c0.029,0.045,0.051,0.092,0.063,0.141s0.023,0.108,0.029,0.177c0.01,0.069,0.014,0.153,0.014,0.25c0,0.098-0.006,0.186-0.018,0.263c-0.014,0.078-0.031,0.145-0.057,0.202c-0.023,0.057-0.055,0.1-0.092,0.128c-0.035,0.029-0.08,0.043-0.127,0.043c-0.066,0-0.162-0.044-0.295-0.134c-0.129-0.09-0.299-0.188-0.512-0.293c-0.211-0.105-0.465-0.203-0.758-0.293c-0.291-0.089-0.629-0.134-1.012-0.134s-0.719,0.044-1.008,0.134c-0.287,0.09-0.525,0.216-0.713,0.379c-0.188,0.163-0.328,0.354-0.422,0.574s-0.141,0.46-0.141,0.72c0,0.358,0.082,0.659,0.246,0.903c0.162,0.244,0.377,0.456,0.645,0.634c0.27,0.18,0.574,0.338,0.916,0.477c0.342,0.139,0.691,0.277,1.045,0.415c0.352,0.139,0.701,0.292,1.043,0.458c0.342,0.167,0.648,0.368,0.916,0.604s0.482,0.519,0.646,0.848C122.453,23.617,122.537,24.015,122.537,24.479z"/><path d="M131.578,24.479c0,0.529-0.098,1.003-0.293,1.422c-0.195,0.42-0.475,0.775-0.836,1.068c-0.363,0.293-0.795,0.518-1.301,0.672s-1.061,0.23-1.672,0.23c-0.381,0-0.744-0.029-1.086-0.092c-0.342-0.061-0.652-0.137-0.928-0.23c-0.277-0.094-0.512-0.193-0.703-0.301c-0.189-0.104-0.33-0.197-0.42-0.279s-0.154-0.184-0.195-0.305c-0.041-0.123-0.063-0.285-0.063-0.488c0-0.107,0.01-0.199,0.025-0.281c0.018-0.081,0.037-0.15,0.061-0.207c0.023-0.058,0.059-0.1,0.098-0.129c0.041-0.027,0.086-0.043,0.135-0.043c0.09,0,0.221,0.058,0.391,0.172c0.172,0.113,0.385,0.238,0.641,0.371c0.258,0.135,0.561,0.26,0.916,0.373c0.354,0.113,0.764,0.17,1.229,0.17c0.373,0,0.715-0.039,1.025-0.121c0.309-0.082,0.576-0.203,0.805-0.367c0.227-0.162,0.404-0.371,0.531-0.629c0.125-0.256,0.188-0.555,0.188-0.896s-0.08-0.631-0.244-0.866c-0.162-0.236-0.375-0.442-0.641-0.616c-0.264-0.175-0.566-0.33-0.902-0.465c-0.338-0.134-0.684-0.272-1.037-0.415c-0.355-0.142-0.701-0.299-1.039-0.47s-0.639-0.378-0.902-0.623c-0.264-0.244-0.479-0.537-0.643-0.879c-0.162-0.342-0.242-0.752-0.242-1.233c0-0.382,0.072-0.759,0.219-1.129c0.146-0.37,0.373-0.702,0.678-0.995s0.695-0.529,1.172-0.708s1.039-0.269,1.691-0.269c0.275,0,0.549,0.022,0.822,0.067c0.273,0.045,0.521,0.104,0.746,0.177s0.416,0.152,0.578,0.238c0.164,0.085,0.287,0.161,0.375,0.226c0.084,0.065,0.141,0.121,0.17,0.165c0.027,0.045,0.049,0.092,0.063,0.141c0.01,0.049,0.021,0.108,0.027,0.177c0.01,0.069,0.014,0.153,0.014,0.25c0,0.098-0.006,0.186-0.02,0.263c-0.012,0.078-0.029,0.145-0.053,0.202c-0.025,0.057-0.057,0.1-0.092,0.128c-0.039,0.029-0.082,0.043-0.129,0.043c-0.066,0-0.162-0.044-0.295-0.134c-0.129-0.09-0.299-0.188-0.512-0.293c-0.211-0.105-0.465-0.203-0.756-0.293c-0.293-0.089-0.631-0.134-1.014-0.134c-0.381,0-0.719,0.044-1.008,0.134c-0.287,0.09-0.527,0.216-0.713,0.379c-0.188,0.163-0.328,0.354-0.422,0.574s-0.141,0.46-0.141,0.72c0,0.358,0.082,0.659,0.246,0.903c0.16,0.244,0.377,0.456,0.645,0.634c0.27,0.18,0.576,0.338,0.918,0.477c0.342,0.139,0.688,0.277,1.043,0.415c0.354,0.139,0.701,0.292,1.043,0.458c0.342,0.167,0.646,0.368,0.916,0.604s0.482,0.519,0.646,0.848C131.496,23.617,131.578,24.015,131.578,24.479z"/><path d="M135.59,12.649c0,0.391-0.066,0.655-0.205,0.793c-0.139,0.139-0.391,0.208-0.758,0.208c-0.359,0-0.605-0.067-0.738-0.202c-0.135-0.134-0.201-0.396-0.201-0.787c0-0.391,0.068-0.655,0.207-0.793s0.391-0.208,0.758-0.208c0.357,0,0.604,0.067,0.736,0.201C135.523,11.997,135.59,12.258,135.59,12.649z M135.371,27.42c0,0.049-0.01,0.094-0.035,0.135s-0.063,0.072-0.117,0.098c-0.053,0.025-0.127,0.045-0.221,0.061c-0.092,0.016-0.213,0.023-0.359,0.023c-0.139,0-0.254-0.008-0.346-0.023c-0.094-0.016-0.17-0.035-0.227-0.061c-0.059-0.025-0.096-0.057-0.115-0.098c-0.021-0.041-0.031-0.086-0.031-0.135V16.372c0-0.048,0.01-0.093,0.031-0.134c0.02-0.041,0.057-0.075,0.115-0.104c0.057-0.028,0.133-0.049,0.227-0.061c0.092-0.012,0.207-0.018,0.346-0.018c0.146,0,0.268,0.006,0.359,0.018c0.094,0.012,0.168,0.033,0.221,0.061c0.055,0.029,0.092,0.063,0.117,0.104c0.025,0.041,0.035,0.085,0.035,0.134V27.42z"/><path d="M147.271,16.348c0,0.024,0,0.051-0.006,0.08c-0.004,0.028-0.008,0.055-0.014,0.079c-0.004,0.024-0.01,0.051-0.018,0.08c-0.008,0.028-0.016,0.055-0.023,0.079l-4.006,10.754c-0.023,0.066-0.059,0.119-0.109,0.158c-0.049,0.041-0.109,0.074-0.182,0.1c-0.074,0.023-0.162,0.039-0.262,0.047c-0.104,0.008-0.225,0.012-0.363,0.012s-0.258-0.004-0.363-0.018c-0.107-0.012-0.197-0.031-0.271-0.055c-0.07-0.023-0.133-0.057-0.182-0.098c-0.047-0.041-0.086-0.09-0.109-0.146l-4.006-10.754c-0.021-0.065-0.041-0.118-0.053-0.159c-0.014-0.041-0.02-0.073-0.025-0.098c-0.004-0.024-0.006-0.045-0.006-0.061c0-0.057,0.014-0.105,0.037-0.146c0.025-0.041,0.063-0.071,0.115-0.091s0.125-0.035,0.215-0.043c0.088-0.008,0.197-0.012,0.33-0.012c0.178,0,0.322,0.006,0.426,0.018c0.105,0.012,0.188,0.031,0.25,0.055c0.061,0.025,0.105,0.058,0.135,0.098s0.055,0.09,0.078,0.146l3.455,9.644l0.025,0.061l0.023-0.061l3.395-9.644c0.016-0.056,0.041-0.105,0.074-0.146c0.031-0.041,0.078-0.073,0.141-0.098c0.061-0.024,0.141-0.042,0.244-0.055c0.1-0.012,0.232-0.018,0.395-0.018c0.133,0,0.238,0.004,0.324,0.012c0.084,0.008,0.152,0.024,0.201,0.049s0.084,0.055,0.105,0.091C147.262,16.244,147.271,16.291,147.271,16.348z"/><path d="M157.949,21.329c0,0.293-0.076,0.494-0.232,0.604c-0.154,0.11-0.303,0.165-0.451,0.165h-7.531c0,0.684,0.068,1.303,0.201,1.855c0.135,0.555,0.355,1.027,0.666,1.422c0.309,0.395,0.711,0.699,1.207,0.91c0.498,0.211,1.109,0.316,1.832,0.316c0.512,0,0.973-0.045,1.379-0.133c0.406-0.09,0.76-0.189,1.057-0.301c0.299-0.109,0.541-0.209,0.732-0.297c0.191-0.09,0.328-0.137,0.41-0.137c0.047,0,0.092,0.014,0.135,0.037c0.039,0.025,0.07,0.064,0.096,0.117c0.023,0.053,0.043,0.119,0.055,0.201c0.012,0.08,0.02,0.182,0.02,0.305c0,0.059-0.006,0.113-0.012,0.166c-0.01,0.051-0.02,0.102-0.031,0.145c-0.014,0.045-0.031,0.09-0.057,0.129c-0.023,0.041-0.055,0.082-0.096,0.123c-0.043,0.041-0.168,0.111-0.379,0.213s-0.488,0.205-0.83,0.305c-0.342,0.104-0.74,0.193-1.191,0.275c-0.451,0.08-0.938,0.121-1.459,0.121c-0.854,0-1.611-0.127-2.27-0.385c-0.66-0.256-1.211-0.635-1.66-1.135c-0.447-0.5-0.787-1.121-1.02-1.861s-0.348-1.599-0.348-2.576c0-0.936,0.119-1.774,0.361-2.515c0.238-0.741,0.584-1.369,1.029-1.886c0.447-0.517,0.988-0.912,1.619-1.185c0.629-0.272,1.332-0.409,2.104-0.409c0.832,0,1.541,0.139,2.125,0.415c0.586,0.276,1.068,0.649,1.447,1.117c0.379,0.468,0.654,1.012,0.83,1.63c0.176,0.618,0.262,1.269,0.262,1.953V21.329z M156.447,20.901c0.025-1.172-0.242-2.087-0.805-2.747s-1.381-0.989-2.453-0.989c-0.555,0-1.039,0.104-1.459,0.311c-0.42,0.208-0.773,0.482-1.061,0.824c-0.291,0.342-0.512,0.738-0.666,1.19c-0.154,0.451-0.244,0.921-0.27,1.41H156.447z"/></g><g><path fill="#9D9D9C" d="M60.316,39.533c0,0.02-0.005,0.035-0.014,0.051c-0.009,0.016-0.025,0.027-0.048,0.037c-0.023,0.008-0.052,0.016-0.087,0.023c-0.036,0.006-0.081,0.008-0.136,0.008c-0.048,0-0.091-0.002-0.128-0.008c-0.037-0.008-0.065-0.016-0.086-0.023c-0.022-0.01-0.037-0.021-0.046-0.037c-0.009-0.016-0.015-0.031-0.015-0.051v-5.342h-0.008l-2.33,5.375c-0.006,0.012-0.016,0.023-0.027,0.033c-0.012,0.012-0.03,0.02-0.051,0.027s-0.046,0.016-0.075,0.02c-0.029,0.004-0.063,0.006-0.103,0.006c-0.043,0-0.079-0.002-0.11-0.006c-0.03-0.004-0.056-0.012-0.076-0.02c-0.02-0.008-0.036-0.016-0.048-0.027c-0.012-0.01-0.02-0.021-0.023-0.033l-2.216-5.375h-0.005v5.342c0,0.02-0.004,0.035-0.013,0.051c-0.009,0.016-0.025,0.027-0.048,0.037c-0.023,0.008-0.052,0.016-0.086,0.023c-0.036,0.006-0.082,0.008-0.14,0.008c-0.051,0-0.095-0.002-0.13-0.008c-0.035-0.008-0.063-0.016-0.084-0.023c-0.022-0.01-0.036-0.021-0.044-0.037c-0.007-0.016-0.011-0.031-0.011-0.051V33.99c0-0.109,0.029-0.186,0.087-0.227c0.058-0.041,0.114-0.061,0.169-0.061h0.302c0.077,0,0.144,0.008,0.202,0.023c0.058,0.018,0.109,0.041,0.154,0.074c0.044,0.031,0.081,0.07,0.112,0.115c0.03,0.047,0.058,0.098,0.082,0.158l1.955,4.705h0.022l2.037-4.688c0.031-0.074,0.064-0.137,0.099-0.186c0.036-0.051,0.072-0.092,0.11-0.123c0.039-0.029,0.08-0.051,0.124-0.063c0.043-0.014,0.092-0.018,0.144-0.018h0.334c0.027,0,0.057,0.004,0.087,0.012c0.03,0.01,0.058,0.027,0.082,0.049c0.024,0.023,0.045,0.053,0.062,0.09c0.017,0.037,0.026,0.082,0.026,0.137V39.533z"/><path fill="#9D9D9C" d="M65.287,39.533c0,0.02-0.004,0.035-0.012,0.051s-0.022,0.027-0.043,0.037c-0.021,0.008-0.049,0.016-0.084,0.023c-0.033,0.006-0.074,0.008-0.122,0.008c-0.056,0-0.1-0.002-0.134-0.008c-0.033-0.008-0.059-0.016-0.077-0.023c-0.019-0.01-0.031-0.021-0.039-0.037c-0.007-0.016-0.012-0.031-0.012-0.051v-0.586c-0.237,0.268-0.47,0.459-0.698,0.578c-0.227,0.119-0.453,0.178-0.68,0.178c-0.271,0-0.5-0.045-0.686-0.137s-0.336-0.217-0.451-0.373c-0.114-0.156-0.196-0.34-0.247-0.547c-0.05-0.207-0.076-0.459-0.076-0.752v-2.502c0-0.02,0.004-0.037,0.011-0.053c0.008-0.014,0.022-0.027,0.043-0.039c0.021-0.01,0.05-0.018,0.085-0.021c0.035-0.006,0.079-0.008,0.131-0.008c0.055,0,0.1,0.002,0.135,0.008c0.035,0.004,0.063,0.012,0.083,0.021c0.02,0.012,0.035,0.025,0.043,0.039c0.01,0.016,0.014,0.033,0.014,0.053v2.453c0,0.256,0.02,0.465,0.059,0.627s0.1,0.299,0.179,0.414c0.079,0.113,0.181,0.201,0.305,0.264c0.122,0.064,0.267,0.096,0.432,0.096c0.212,0,0.421-0.076,0.63-0.225c0.209-0.15,0.432-0.369,0.666-0.66v-2.969c0-0.02,0.004-0.037,0.012-0.053c0.008-0.014,0.021-0.027,0.043-0.039c0.021-0.01,0.05-0.018,0.085-0.021c0.034-0.006,0.08-0.008,0.135-0.008c0.052,0,0.096,0.002,0.131,0.008c0.034,0.004,0.063,0.012,0.083,0.021c0.02,0.012,0.033,0.025,0.043,0.039c0.01,0.016,0.014,0.033,0.014,0.053V39.533z"/><path fill="#9D9D9C" d="M67.361,39.533c0,0.02-0.005,0.035-0.015,0.051c-0.009,0.016-0.023,0.027-0.044,0.037c-0.02,0.008-0.047,0.016-0.082,0.023c-0.035,0.006-0.08,0.008-0.135,0.008c-0.053,0-0.096-0.002-0.131-0.008c-0.035-0.008-0.063-0.016-0.084-0.023c-0.021-0.01-0.036-0.021-0.044-0.037c-0.007-0.016-0.012-0.031-0.012-0.051v-6.17c0-0.018,0.005-0.035,0.012-0.051c0.008-0.014,0.022-0.027,0.044-0.037c0.021-0.012,0.049-0.02,0.084-0.025c0.035-0.004,0.078-0.006,0.131-0.006c0.055,0,0.1,0.002,0.135,0.006c0.035,0.006,0.063,0.014,0.082,0.025c0.021,0.01,0.035,0.023,0.044,0.037c0.01,0.016,0.015,0.033,0.015,0.051V39.533z"/><path fill="#9D9D9C" d="M70.881,39.287c0,0.063-0.006,0.115-0.017,0.154c-0.01,0.041-0.027,0.072-0.05,0.096c-0.023,0.021-0.057,0.043-0.1,0.063c-0.045,0.02-0.097,0.037-0.154,0.051c-0.059,0.014-0.119,0.025-0.183,0.033c-0.065,0.006-0.128,0.01-0.188,0.01c-0.204,0-0.378-0.027-0.521-0.082s-0.261-0.139-0.353-0.248c-0.091-0.113-0.158-0.254-0.2-0.424c-0.04-0.172-0.061-0.373-0.061-0.605v-2.576h-0.618c-0.043,0-0.077-0.02-0.101-0.059c-0.025-0.037-0.037-0.094-0.037-0.172c0-0.039,0.004-0.072,0.01-0.102s0.015-0.055,0.027-0.072c0.012-0.021,0.026-0.035,0.043-0.045c0.018-0.008,0.036-0.014,0.058-0.014h0.618v-1.016c0-0.02,0.003-0.035,0.012-0.053c0.008-0.014,0.021-0.027,0.043-0.037s0.05-0.018,0.085-0.023c0.034-0.004,0.078-0.006,0.13-0.006c0.055,0,0.1,0.002,0.135,0.006c0.035,0.006,0.063,0.014,0.083,0.023c0.02,0.01,0.034,0.023,0.043,0.037c0.01,0.018,0.014,0.033,0.014,0.053v1.016h1.146c0.021,0,0.04,0.006,0.057,0.014c0.017,0.01,0.031,0.023,0.043,0.045c0.012,0.018,0.021,0.043,0.028,0.072c0.005,0.029,0.009,0.063,0.009,0.102c0,0.078-0.014,0.135-0.039,0.172c-0.025,0.039-0.059,0.059-0.098,0.059h-1.146v2.504c0,0.314,0.046,0.553,0.136,0.719c0.09,0.164,0.254,0.246,0.492,0.246c0.073,0,0.14-0.008,0.199-0.023c0.06-0.014,0.111-0.031,0.158-0.049c0.045-0.02,0.084-0.035,0.115-0.051c0.033-0.016,0.062-0.023,0.086-0.023c0.016,0,0.028,0.004,0.04,0.01c0.013,0.006,0.022,0.018,0.03,0.035c0.008,0.016,0.014,0.037,0.019,0.063C70.879,39.215,70.881,39.248,70.881,39.287z"/><path fill="#9D9D9C" d="M72.593,33.994c0,0.146-0.026,0.246-0.078,0.299c-0.052,0.051-0.147,0.078-0.283,0.078s-0.228-0.025-0.276-0.076c-0.052-0.051-0.076-0.148-0.076-0.295s0.025-0.246,0.078-0.297c0.051-0.053,0.146-0.078,0.283-0.078c0.134,0,0.227,0.025,0.277,0.074C72.568,33.75,72.593,33.85,72.593,33.994z M72.51,39.533c0,0.02-0.004,0.035-0.014,0.051c-0.008,0.016-0.023,0.027-0.043,0.037c-0.02,0.008-0.047,0.016-0.082,0.023c-0.035,0.006-0.08,0.008-0.136,0.008c-0.052,0-0.095-0.002-0.13-0.008c-0.035-0.008-0.064-0.016-0.085-0.023c-0.022-0.01-0.036-0.021-0.044-0.037s-0.012-0.031-0.012-0.051v-4.141c0-0.02,0.004-0.037,0.012-0.053c0.008-0.014,0.021-0.027,0.044-0.039c0.021-0.01,0.05-0.018,0.085-0.021c0.035-0.006,0.078-0.008,0.13-0.008c0.056,0,0.101,0.002,0.136,0.008c0.035,0.004,0.063,0.012,0.082,0.021c0.02,0.012,0.035,0.025,0.043,0.039c0.01,0.016,0.014,0.033,0.014,0.053V39.533z"/><path fill="#9D9D9C" d="M77.65,37.4c0,0.354-0.037,0.672-0.115,0.957c-0.078,0.283-0.193,0.525-0.344,0.723c-0.152,0.199-0.338,0.354-0.563,0.461c-0.221,0.109-0.477,0.162-0.764,0.162c-0.123,0-0.236-0.014-0.344-0.039c-0.105-0.025-0.211-0.066-0.313-0.121s-0.205-0.123-0.307-0.207c-0.104-0.08-0.211-0.18-0.322-0.297v2.139c0,0.018-0.006,0.035-0.016,0.049c-0.008,0.016-0.021,0.029-0.043,0.039c-0.02,0.012-0.046,0.02-0.082,0.023c-0.035,0.006-0.08,0.008-0.135,0.008c-0.053,0-0.096-0.002-0.131-0.008c-0.035-0.004-0.063-0.012-0.085-0.023c-0.021-0.01-0.036-0.023-0.042-0.039c-0.008-0.014-0.013-0.031-0.013-0.049v-5.785c0-0.023,0.005-0.041,0.013-0.055c0.006-0.018,0.02-0.029,0.04-0.037c0.021-0.012,0.047-0.018,0.078-0.021c0.032-0.006,0.071-0.008,0.117-0.008s0.084,0.002,0.114,0.008c0.029,0.004,0.057,0.01,0.076,0.021c0.023,0.008,0.037,0.02,0.047,0.037c0.01,0.014,0.014,0.031,0.014,0.055v0.598c0.127-0.131,0.25-0.244,0.367-0.34c0.115-0.098,0.232-0.178,0.348-0.24c0.115-0.064,0.234-0.113,0.355-0.143c0.123-0.031,0.254-0.045,0.389-0.045c0.301,0,0.555,0.057,0.766,0.17c0.211,0.115,0.383,0.271,0.516,0.469c0.133,0.199,0.229,0.432,0.287,0.695C77.621,36.82,77.65,37.102,77.65,37.4z M77.078,37.488c0-0.232-0.018-0.457-0.055-0.672s-0.098-0.406-0.186-0.574c-0.086-0.166-0.201-0.303-0.348-0.402c-0.145-0.102-0.328-0.15-0.547-0.15c-0.109,0-0.217,0.014-0.322,0.045s-0.213,0.08-0.324,0.15c-0.109,0.07-0.223,0.162-0.342,0.273s-0.244,0.25-0.375,0.414v1.803c0.229,0.277,0.447,0.492,0.654,0.639c0.211,0.148,0.43,0.223,0.658,0.223c0.211,0,0.393-0.051,0.543-0.152c0.152-0.104,0.275-0.238,0.369-0.404s0.164-0.354,0.207-0.563C77.057,37.908,77.078,37.699,77.078,37.488z"/><path fill="#9D9D9C" d="M82.248,39.533c0,0.02-0.006,0.035-0.012,0.051c-0.01,0.016-0.023,0.027-0.045,0.037c-0.02,0.008-0.049,0.016-0.082,0.023c-0.033,0.006-0.074,0.008-0.123,0.008c-0.055,0-0.1-0.002-0.133-0.008c-0.033-0.008-0.061-0.016-0.078-0.023c-0.018-0.01-0.031-0.021-0.039-0.037s-0.012-0.031-0.012-0.051v-0.586c-0.236,0.268-0.469,0.459-0.697,0.578s-0.453,0.178-0.68,0.178c-0.271,0-0.5-0.045-0.688-0.137c-0.186-0.092-0.336-0.217-0.451-0.373c-0.113-0.156-0.195-0.34-0.246-0.547s-0.076-0.459-0.076-0.752v-2.502c0-0.02,0.004-0.037,0.012-0.053c0.008-0.014,0.021-0.027,0.045-0.039c0.02-0.01,0.049-0.018,0.082-0.021c0.037-0.006,0.08-0.008,0.131-0.008c0.057,0,0.102,0.002,0.137,0.008c0.033,0.004,0.063,0.012,0.08,0.021c0.021,0.012,0.037,0.025,0.045,0.039c0.01,0.016,0.014,0.033,0.014,0.053v2.453c0,0.256,0.02,0.465,0.059,0.627s0.1,0.299,0.18,0.414c0.08,0.113,0.18,0.201,0.305,0.264c0.123,0.064,0.266,0.096,0.432,0.096c0.213,0,0.42-0.076,0.631-0.225c0.207-0.15,0.43-0.369,0.664-0.66v-2.969c0-0.02,0.006-0.037,0.012-0.053c0.01-0.014,0.023-0.027,0.045-0.039c0.02-0.01,0.049-0.018,0.086-0.021c0.033-0.006,0.078-0.008,0.133-0.008c0.051,0,0.096,0.002,0.131,0.008c0.035,0.004,0.063,0.012,0.082,0.021c0.02,0.012,0.035,0.025,0.045,0.039c0.008,0.016,0.014,0.033,0.014,0.053V39.533z"/><path fill="#9D9D9C" d="M86.074,35.602c0,0.047-0.002,0.086-0.006,0.117c-0.002,0.031-0.006,0.057-0.016,0.078c-0.006,0.02-0.016,0.035-0.027,0.045c-0.01,0.012-0.023,0.016-0.041,0.016c-0.029,0-0.061-0.006-0.1-0.02c-0.035-0.016-0.078-0.029-0.127-0.045s-0.104-0.029-0.158-0.043c-0.061-0.014-0.123-0.021-0.195-0.021c-0.08,0-0.162,0.02-0.24,0.055c-0.082,0.033-0.164,0.092-0.25,0.168c-0.088,0.078-0.18,0.182-0.275,0.311c-0.096,0.127-0.201,0.283-0.318,0.471v2.801c0,0.02-0.004,0.035-0.014,0.051c-0.008,0.016-0.023,0.027-0.043,0.037c-0.021,0.008-0.047,0.016-0.084,0.023c-0.033,0.006-0.078,0.008-0.133,0.008c-0.053,0-0.098-0.002-0.131-0.008c-0.035-0.008-0.064-0.016-0.084-0.023c-0.023-0.01-0.037-0.021-0.045-0.037s-0.012-0.031-0.012-0.051v-4.141c0-0.02,0.004-0.037,0.012-0.053c0.008-0.014,0.021-0.027,0.045-0.039c0.02-0.01,0.047-0.018,0.08-0.021c0.031-0.006,0.074-0.008,0.125-0.008s0.094,0.002,0.127,0.008c0.033,0.004,0.061,0.012,0.078,0.021c0.018,0.012,0.031,0.025,0.039,0.039c0.008,0.016,0.014,0.033,0.014,0.053v0.652c0.117-0.172,0.227-0.314,0.328-0.42c0.1-0.107,0.195-0.191,0.287-0.25s0.182-0.1,0.27-0.121c0.086-0.021,0.176-0.031,0.268-0.031c0.041,0,0.084,0.002,0.137,0.006s0.107,0.012,0.168,0.025c0.059,0.012,0.113,0.025,0.16,0.043s0.078,0.031,0.098,0.047c0.018,0.014,0.029,0.025,0.037,0.035c0.006,0.012,0.01,0.025,0.016,0.041c0.004,0.018,0.008,0.041,0.01,0.07C86.072,35.518,86.074,35.557,86.074,35.602z"/><path fill="#9D9D9C" d="M90.625,37.4c0,0.354-0.039,0.672-0.117,0.957c-0.078,0.283-0.191,0.525-0.344,0.723c-0.15,0.199-0.338,0.354-0.561,0.461c-0.221,0.109-0.479,0.162-0.764,0.162c-0.123,0-0.238-0.014-0.346-0.039c-0.104-0.025-0.209-0.066-0.313-0.121c-0.102-0.055-0.203-0.123-0.305-0.207c-0.104-0.08-0.211-0.18-0.324-0.297v2.139c0,0.018-0.002,0.035-0.014,0.049c-0.01,0.016-0.023,0.029-0.043,0.039c-0.02,0.012-0.047,0.02-0.082,0.023c-0.037,0.006-0.08,0.008-0.135,0.008c-0.053,0-0.096-0.002-0.131-0.008c-0.035-0.004-0.063-0.012-0.086-0.023c-0.02-0.01-0.035-0.023-0.043-0.039c-0.008-0.014-0.01-0.031-0.01-0.049v-5.785c0-0.023,0.002-0.041,0.01-0.055c0.008-0.018,0.021-0.029,0.041-0.037c0.02-0.012,0.047-0.018,0.078-0.021c0.031-0.006,0.072-0.008,0.117-0.008c0.047,0,0.084,0.002,0.115,0.008c0.029,0.004,0.057,0.01,0.076,0.021c0.021,0.008,0.037,0.02,0.047,0.037c0.01,0.014,0.014,0.031,0.014,0.055v0.598c0.127-0.131,0.25-0.244,0.365-0.34c0.117-0.098,0.232-0.178,0.35-0.24c0.113-0.064,0.234-0.113,0.355-0.143c0.123-0.031,0.252-0.045,0.389-0.045c0.299,0,0.555,0.057,0.766,0.17c0.211,0.115,0.383,0.271,0.514,0.469c0.133,0.199,0.23,0.432,0.289,0.695C90.596,36.82,90.625,37.102,90.625,37.4zM90.053,37.488c0-0.232-0.018-0.457-0.057-0.672c-0.035-0.215-0.098-0.406-0.186-0.574c-0.084-0.166-0.201-0.303-0.346-0.402c-0.145-0.102-0.328-0.15-0.547-0.15c-0.109,0-0.217,0.014-0.324,0.045c-0.105,0.031-0.213,0.08-0.322,0.15s-0.223,0.162-0.344,0.273c-0.119,0.111-0.244,0.25-0.375,0.414v1.803c0.23,0.277,0.449,0.492,0.656,0.639c0.211,0.148,0.43,0.223,0.66,0.223c0.207,0,0.391-0.051,0.539-0.152c0.152-0.104,0.275-0.238,0.369-0.404s0.166-0.354,0.209-0.563S90.053,37.699,90.053,37.488z"/><path fill="#9D9D9C" d="M95.545,37.418c0,0.33-0.043,0.635-0.127,0.912c-0.086,0.277-0.213,0.518-0.383,0.723s-0.379,0.365-0.635,0.479c-0.252,0.115-0.547,0.172-0.883,0.172c-0.322,0-0.607-0.051-0.848-0.152c-0.244-0.104-0.447-0.25-0.611-0.441c-0.162-0.189-0.283-0.42-0.365-0.691c-0.08-0.271-0.121-0.58-0.121-0.922c0-0.328,0.043-0.633,0.125-0.91c0.084-0.277,0.213-0.518,0.383-0.721c0.166-0.203,0.379-0.361,0.631-0.473c0.254-0.115,0.551-0.17,0.891-0.17c0.32,0,0.605,0.049,0.848,0.15c0.242,0.1,0.445,0.246,0.607,0.436c0.16,0.191,0.283,0.424,0.365,0.695C95.506,36.775,95.545,37.08,95.545,37.418z M94.969,37.469c0-0.234-0.023-0.459-0.07-0.672c-0.043-0.215-0.119-0.402-0.227-0.566c-0.107-0.162-0.25-0.293-0.432-0.389c-0.18-0.096-0.404-0.145-0.672-0.145c-0.246,0-0.461,0.045-0.641,0.133c-0.18,0.09-0.328,0.211-0.441,0.369c-0.115,0.156-0.199,0.342-0.256,0.555c-0.053,0.215-0.082,0.445-0.082,0.693c0,0.236,0.023,0.463,0.07,0.68c0.043,0.215,0.119,0.402,0.227,0.564s0.25,0.291,0.432,0.385c0.18,0.094,0.404,0.143,0.672,0.143c0.248,0,0.461-0.045,0.643-0.133c0.178-0.088,0.326-0.211,0.441-0.367c0.115-0.154,0.199-0.34,0.254-0.555C94.941,37.951,94.969,37.719,94.969,37.469z"/><path fill="#9D9D9C" d="M99.203,38.43c0,0.199-0.035,0.377-0.109,0.533c-0.074,0.158-0.18,0.293-0.313,0.402c-0.137,0.109-0.301,0.193-0.49,0.25c-0.188,0.059-0.396,0.088-0.625,0.088c-0.146,0-0.279-0.012-0.41-0.035c-0.127-0.021-0.242-0.051-0.346-0.086c-0.105-0.035-0.191-0.072-0.264-0.111c-0.07-0.041-0.125-0.076-0.158-0.105c-0.033-0.031-0.059-0.07-0.072-0.115c-0.016-0.047-0.023-0.107-0.023-0.184c0-0.039,0.004-0.074,0.008-0.105c0.008-0.029,0.016-0.055,0.025-0.076c0.008-0.023,0.02-0.039,0.035-0.049c0.016-0.012,0.031-0.016,0.049-0.016c0.035,0,0.086,0.02,0.148,0.064c0.064,0.041,0.145,0.088,0.24,0.139c0.098,0.049,0.211,0.098,0.342,0.141c0.135,0.041,0.287,0.063,0.461,0.063c0.141,0,0.268-0.016,0.385-0.045c0.115-0.031,0.217-0.078,0.305-0.137c0.084-0.063,0.148-0.141,0.197-0.236c0.047-0.096,0.07-0.209,0.07-0.336c0-0.129-0.029-0.238-0.092-0.326c-0.061-0.088-0.141-0.164-0.24-0.23c-0.098-0.066-0.211-0.125-0.338-0.174c-0.125-0.051-0.258-0.104-0.389-0.156c-0.133-0.053-0.262-0.111-0.391-0.176c-0.127-0.064-0.238-0.143-0.338-0.234s-0.18-0.201-0.24-0.33c-0.063-0.127-0.092-0.281-0.092-0.461c0-0.145,0.027-0.285,0.084-0.424c0.053-0.139,0.137-0.264,0.252-0.373s0.262-0.199,0.439-0.266c0.18-0.066,0.389-0.1,0.635-0.1c0.104,0,0.205,0.008,0.309,0.023c0.104,0.018,0.197,0.039,0.279,0.066c0.086,0.027,0.156,0.059,0.219,0.09c0.061,0.031,0.107,0.061,0.139,0.084c0.031,0.025,0.055,0.047,0.063,0.063c0.012,0.018,0.02,0.033,0.025,0.053c0.004,0.018,0.006,0.041,0.01,0.066c0.004,0.027,0.006,0.059,0.006,0.094c0,0.037-0.002,0.07-0.008,0.098c-0.004,0.029-0.01,0.055-0.02,0.076s-0.021,0.039-0.035,0.049S98.906,36,98.889,36c-0.025,0-0.063-0.016-0.109-0.051c-0.051-0.033-0.115-0.068-0.193-0.109c-0.08-0.039-0.174-0.076-0.283-0.111c-0.111-0.031-0.236-0.049-0.383-0.049c-0.143,0-0.268,0.018-0.375,0.049c-0.109,0.035-0.199,0.082-0.268,0.145c-0.072,0.059-0.123,0.131-0.158,0.213c-0.037,0.084-0.055,0.174-0.055,0.271c0,0.133,0.031,0.246,0.092,0.338c0.063,0.092,0.143,0.172,0.244,0.238c0.1,0.066,0.215,0.127,0.344,0.178c0.127,0.053,0.256,0.105,0.391,0.156c0.133,0.053,0.262,0.109,0.391,0.172s0.244,0.137,0.346,0.227c0.1,0.088,0.18,0.195,0.24,0.318S99.203,38.256,99.203,38.43z"/><path fill="#9D9D9C" d="M103.773,37.25c0,0.109-0.029,0.186-0.088,0.227s-0.113,0.061-0.17,0.061h-2.824c0,0.256,0.025,0.488,0.076,0.697c0.049,0.207,0.131,0.385,0.248,0.533c0.115,0.148,0.268,0.262,0.453,0.342c0.186,0.078,0.416,0.117,0.686,0.117c0.195,0,0.367-0.016,0.52-0.049c0.152-0.035,0.283-0.072,0.395-0.113s0.203-0.078,0.275-0.111c0.072-0.035,0.123-0.051,0.154-0.051c0.018,0,0.033,0.004,0.049,0.014s0.029,0.023,0.039,0.043c0.008,0.02,0.016,0.047,0.02,0.076s0.006,0.068,0.006,0.113c0,0.021-0.002,0.043-0.004,0.063c-0.004,0.02-0.006,0.039-0.012,0.055c-0.004,0.018-0.01,0.033-0.02,0.049c-0.012,0.014-0.021,0.029-0.037,0.045s-0.064,0.043-0.143,0.08c-0.08,0.039-0.182,0.078-0.313,0.115c-0.127,0.037-0.277,0.072-0.443,0.104c-0.17,0.031-0.354,0.045-0.549,0.045c-0.32,0-0.605-0.049-0.852-0.145c-0.248-0.096-0.455-0.238-0.623-0.426s-0.295-0.42-0.381-0.697c-0.088-0.279-0.131-0.6-0.131-0.967c0-0.35,0.045-0.664,0.135-0.941c0.09-0.279,0.219-0.514,0.387-0.707c0.168-0.195,0.371-0.342,0.607-0.445c0.234-0.102,0.498-0.152,0.789-0.152c0.311,0,0.576,0.051,0.797,0.154c0.219,0.104,0.4,0.244,0.541,0.42c0.143,0.174,0.246,0.379,0.313,0.611c0.064,0.23,0.1,0.475,0.1,0.73V37.25z M103.209,37.088c0.01-0.438-0.092-0.781-0.303-1.029c-0.211-0.246-0.518-0.369-0.918-0.369c-0.209,0-0.393,0.039-0.549,0.115c-0.156,0.078-0.291,0.182-0.396,0.309c-0.109,0.129-0.193,0.279-0.252,0.447c-0.057,0.17-0.09,0.346-0.1,0.527H103.209z"/><path fill="#9D9D9C" d="M110.836,33.959c0,0.039-0.004,0.074-0.012,0.104c-0.004,0.031-0.016,0.057-0.025,0.076c-0.014,0.021-0.027,0.035-0.047,0.047c-0.02,0.01-0.037,0.016-0.059,0.016h-1.768v5.332c0,0.02-0.004,0.035-0.014,0.051s-0.025,0.027-0.047,0.037c-0.02,0.008-0.049,0.016-0.084,0.023c-0.039,0.006-0.084,0.008-0.135,0.008s-0.096-0.002-0.133-0.008c-0.037-0.008-0.066-0.016-0.086-0.023c-0.023-0.01-0.039-0.021-0.045-0.037c-0.012-0.016-0.016-0.031-0.016-0.051v-5.332h-1.766c-0.025,0-0.047-0.006-0.063-0.016c-0.018-0.012-0.031-0.025-0.043-0.047c-0.014-0.02-0.021-0.045-0.029-0.076c-0.006-0.029-0.008-0.064-0.008-0.104c0-0.043,0.002-0.082,0.008-0.113c0.008-0.031,0.016-0.059,0.029-0.08c0.012-0.021,0.025-0.037,0.043-0.047c0.016-0.012,0.037-0.016,0.063-0.016h4.092c0.021,0,0.039,0.004,0.059,0.016c0.02,0.01,0.033,0.025,0.047,0.047c0.01,0.021,0.021,0.049,0.025,0.08C110.832,33.877,110.836,33.916,110.836,33.959z"/><path fill="#9D9D9C" d="M115.037,39.533c0,0.02-0.004,0.035-0.014,0.051c-0.008,0.016-0.023,0.027-0.043,0.037c-0.02,0.008-0.049,0.016-0.082,0.023c-0.035,0.006-0.08,0.008-0.131,0.008c-0.055,0-0.102-0.002-0.135-0.008c-0.035-0.008-0.063-0.016-0.082-0.023c-0.021-0.01-0.037-0.021-0.043-0.037c-0.012-0.016-0.016-0.031-0.016-0.051v-2.457c0-0.256-0.02-0.465-0.059-0.625c-0.039-0.162-0.1-0.299-0.178-0.412c-0.082-0.115-0.182-0.203-0.307-0.266c-0.123-0.063-0.266-0.094-0.432-0.094c-0.211,0-0.42,0.074-0.633,0.225c-0.209,0.148-0.432,0.369-0.664,0.66v2.969c0,0.02-0.004,0.035-0.012,0.051c-0.01,0.016-0.023,0.027-0.043,0.037c-0.02,0.008-0.049,0.016-0.082,0.023c-0.037,0.006-0.082,0.008-0.137,0.008c-0.053,0-0.094-0.002-0.131-0.008c-0.035-0.008-0.064-0.016-0.084-0.023c-0.023-0.01-0.035-0.021-0.045-0.037c-0.006-0.016-0.012-0.031-0.012-0.051v-6.17c0-0.018,0.006-0.035,0.012-0.051c0.01-0.014,0.021-0.027,0.045-0.037c0.02-0.012,0.049-0.02,0.084-0.025c0.037-0.004,0.078-0.006,0.131-0.006c0.055,0,0.1,0.002,0.137,0.006c0.033,0.006,0.063,0.014,0.082,0.025c0.02,0.01,0.033,0.023,0.043,0.037c0.008,0.016,0.012,0.033,0.012,0.051v2.586c0.227-0.25,0.453-0.434,0.678-0.551c0.227-0.119,0.453-0.176,0.68-0.176c0.27,0,0.5,0.045,0.686,0.137s0.336,0.215,0.451,0.369c0.115,0.156,0.197,0.338,0.246,0.545c0.051,0.209,0.076,0.459,0.076,0.752V39.533z"/><path fill="#9D9D9C" d="M119.926,37.25c0,0.109-0.029,0.186-0.086,0.227c-0.059,0.041-0.115,0.061-0.17,0.061h-2.824c0,0.256,0.023,0.488,0.074,0.697c0.053,0.207,0.135,0.385,0.252,0.533c0.113,0.148,0.266,0.262,0.453,0.342c0.186,0.078,0.414,0.117,0.686,0.117c0.191,0,0.365-0.016,0.516-0.049c0.152-0.035,0.287-0.072,0.396-0.113c0.111-0.041,0.203-0.078,0.275-0.111c0.072-0.035,0.123-0.051,0.154-0.051c0.018,0,0.035,0.004,0.051,0.014c0.014,0.01,0.027,0.023,0.035,0.043c0.01,0.02,0.016,0.047,0.02,0.076c0.006,0.029,0.008,0.068,0.008,0.113c0,0.021-0.002,0.043-0.004,0.063c-0.004,0.02-0.008,0.039-0.012,0.055c-0.004,0.018-0.012,0.033-0.02,0.049c-0.01,0.014-0.023,0.029-0.039,0.045c-0.014,0.016-0.063,0.043-0.141,0.08c-0.08,0.039-0.184,0.078-0.311,0.115c-0.129,0.037-0.277,0.072-0.447,0.104s-0.35,0.045-0.547,0.045c-0.32,0-0.604-0.049-0.852-0.145s-0.453-0.238-0.623-0.426c-0.168-0.188-0.295-0.42-0.381-0.697c-0.088-0.279-0.131-0.6-0.131-0.967c0-0.35,0.045-0.664,0.133-0.941c0.092-0.279,0.221-0.514,0.391-0.707c0.166-0.195,0.367-0.342,0.605-0.445c0.236-0.102,0.5-0.152,0.787-0.152c0.314,0,0.58,0.051,0.799,0.154s0.4,0.244,0.543,0.42c0.141,0.174,0.246,0.379,0.311,0.611c0.064,0.23,0.098,0.475,0.098,0.73V37.25z M119.363,37.088c0.01-0.438-0.092-0.781-0.301-1.029c-0.211-0.246-0.52-0.369-0.922-0.369c-0.207,0-0.389,0.039-0.547,0.115c-0.156,0.078-0.291,0.182-0.398,0.309c-0.109,0.129-0.191,0.279-0.25,0.447c-0.059,0.17-0.092,0.346-0.1,0.527H119.363z"/><path fill="#9D9D9C" d="M127.086,39.533c0,0.02-0.004,0.035-0.014,0.051c-0.008,0.016-0.023,0.027-0.045,0.037c-0.02,0.008-0.047,0.016-0.08,0.023c-0.035,0.006-0.08,0.008-0.131,0.008c-0.055,0-0.102-0.002-0.135-0.008c-0.035-0.008-0.064-0.016-0.086-0.023c-0.021-0.01-0.035-0.021-0.043-0.037s-0.012-0.031-0.012-0.051v-2.549c0-0.195-0.018-0.373-0.053-0.533c-0.035-0.162-0.09-0.299-0.164-0.412c-0.076-0.115-0.17-0.203-0.283-0.266c-0.115-0.063-0.252-0.094-0.406-0.094c-0.191,0-0.389,0.074-0.584,0.225c-0.197,0.148-0.412,0.369-0.648,0.66v2.969c0,0.02-0.004,0.035-0.014,0.051s-0.021,0.027-0.043,0.037c-0.02,0.008-0.047,0.016-0.082,0.023c-0.035,0.006-0.078,0.008-0.129,0.008c-0.055,0-0.098-0.002-0.133-0.008c-0.033-0.008-0.063-0.016-0.084-0.023c-0.021-0.01-0.037-0.021-0.043-0.037c-0.008-0.016-0.012-0.031-0.012-0.051v-2.549c0-0.195-0.018-0.373-0.055-0.533c-0.037-0.162-0.092-0.299-0.168-0.412c-0.074-0.115-0.168-0.203-0.285-0.266c-0.113-0.063-0.248-0.094-0.404-0.094c-0.191,0-0.387,0.074-0.582,0.225c-0.197,0.148-0.412,0.369-0.645,0.66v2.969c0,0.02-0.004,0.035-0.014,0.051c-0.008,0.016-0.023,0.027-0.043,0.037c-0.02,0.008-0.047,0.016-0.082,0.023c-0.035,0.006-0.08,0.008-0.135,0.008c-0.053,0-0.094-0.002-0.131-0.008c-0.035-0.008-0.064-0.016-0.084-0.023c-0.023-0.01-0.037-0.021-0.045-0.037s-0.012-0.031-0.012-0.051v-4.141c0-0.02,0.004-0.037,0.012-0.053c0.008-0.014,0.021-0.027,0.045-0.039c0.02-0.01,0.047-0.018,0.08-0.021c0.031-0.006,0.074-0.008,0.125-0.008s0.094,0.002,0.127,0.008c0.033,0.004,0.061,0.012,0.078,0.021c0.021,0.012,0.031,0.025,0.041,0.039c0.006,0.016,0.012,0.033,0.012,0.053v0.584c0.236-0.266,0.461-0.457,0.676-0.576s0.428-0.178,0.637-0.178c0.176,0,0.328,0.02,0.465,0.061c0.135,0.041,0.256,0.1,0.357,0.174c0.105,0.076,0.195,0.164,0.266,0.27c0.074,0.102,0.135,0.217,0.18,0.342c0.143-0.158,0.279-0.293,0.406-0.4c0.125-0.109,0.246-0.195,0.359-0.26c0.117-0.066,0.227-0.113,0.334-0.143s0.213-0.043,0.314-0.043c0.26,0,0.479,0.045,0.658,0.137c0.178,0.092,0.32,0.215,0.43,0.369c0.107,0.156,0.186,0.338,0.232,0.545c0.047,0.209,0.072,0.43,0.072,0.66V39.533z"/><path fill="#9D9D9C" d="M131.975,37.25c0,0.109-0.029,0.186-0.086,0.227c-0.059,0.041-0.115,0.061-0.17,0.061h-2.824c0,0.256,0.023,0.488,0.074,0.697c0.051,0.207,0.135,0.385,0.248,0.533c0.117,0.148,0.27,0.262,0.455,0.342c0.188,0.078,0.414,0.117,0.688,0.117c0.191,0,0.365-0.016,0.516-0.049c0.152-0.035,0.287-0.072,0.396-0.113c0.111-0.041,0.203-0.078,0.275-0.111c0.07-0.035,0.121-0.051,0.154-0.051c0.018,0,0.035,0.004,0.049,0.014c0.016,0.01,0.029,0.023,0.037,0.043c0.01,0.02,0.016,0.047,0.02,0.076c0.006,0.029,0.008,0.068,0.008,0.113c0,0.021-0.002,0.043-0.004,0.063c-0.004,0.02-0.008,0.039-0.012,0.055c-0.004,0.018-0.012,0.033-0.02,0.049c-0.01,0.014-0.023,0.029-0.039,0.045c-0.014,0.016-0.063,0.043-0.141,0.08c-0.08,0.039-0.184,0.078-0.313,0.115c-0.127,0.037-0.275,0.072-0.445,0.104s-0.354,0.045-0.547,0.045c-0.32,0-0.604-0.049-0.852-0.145s-0.453-0.238-0.623-0.426c-0.168-0.188-0.295-0.42-0.383-0.697c-0.086-0.279-0.129-0.6-0.129-0.967c0-0.35,0.045-0.664,0.133-0.941c0.092-0.279,0.221-0.514,0.387-0.707c0.17-0.195,0.371-0.342,0.609-0.445c0.236-0.102,0.498-0.152,0.787-0.152c0.311,0,0.58,0.051,0.799,0.154s0.4,0.244,0.541,0.42c0.143,0.174,0.248,0.379,0.313,0.611c0.064,0.23,0.098,0.475,0.098,0.73V37.25z M131.412,37.088c0.008-0.438-0.092-0.781-0.303-1.029c-0.211-0.246-0.518-0.369-0.92-0.369c-0.207,0-0.389,0.039-0.547,0.115c-0.156,0.078-0.291,0.182-0.398,0.309c-0.109,0.129-0.191,0.279-0.25,0.447c-0.059,0.17-0.092,0.346-0.1,0.527H131.412z"/></g></g></svg>