<?xml version="1.0" encoding="utf-8"?>
<!DOCTYPE svg PUBLIC "-//W3C//DTD SVG 1.1//EN" "http://www.w3.org/Graphics/SVG/1.1/DTD/svg11.dtd">
<svg xmlns="http://www.w3.org/2000/svg" xmlns:xlink="http://www.w3.org/1999/xlink" x="0px" y="0px"
width="16px" height="16px" viewBox="0 0 16 16" enable-background="new 0 0 16 16" xml:space="preserve">
    <path fill="#231F20" d="M16,3.063L13,0v2H1C0.447,2,0,2.447,0,3s0.447,1,1,1h12v2L16,3.063z"/>
    <path fill="#231F20" d="M16,13.063L13,10v2H1c-0.553,0-1,0.447-1,1s0.447,1,1,1h12v2L16,13.063z"/>
    <path fill="#231F20" d="M15,7H3V5L0,7.938L3,11V9h12c0.553,0,1-0.447,1-1S15.553,7,15,7z"/>
</svg>
