<?xml version="1.0" encoding="utf-8"?>
<svg xmlns="http://www.w3.org/2000/svg" xmlns:xlink="http://www.w3.org/1999/xlink" width="32px" height="32px" viewBox="0 0 16 16">
    <g>
        <g>
            <path fill="#1e1e1e" d="M8,16c-0.256,0-0.512-0.098-0.707-0.293C7.077,15.491,2,10.364,2,6c0-3.309,2.691-6,6-6
            c3.309,0,6,2.691,6,6c0,4.364-5.077,9.491-5.293,9.707C8.512,15.902,8.256,16,8,16z M8,2C5.795,2,4,3.794,4,6
            c0,2.496,2.459,5.799,4,7.536c1.541-1.737,4-5.04,4-7.536C12.001,3.794,10.206,2,8,2z"/>
        </g>
        <g>
            <circle fill="#1e1e1e" cx="8.001" cy="6" r="2"/>
        </g>
    </g>
</svg>
