<?xml version="1.0" encoding="utf-8"?>
<!DOCTYPE svg PUBLIC "-//W3C//DTD SVG 1.1//EN" "http://www.w3.org/Graphics/SVG/1.1/DTD/svg11.dtd">
<svg xmlns="http://www.w3.org/2000/svg" xmlns:xlink="http://www.w3.org/1999/xlink" viewBox="0 0 73 12" enable-background="new 0 0 73 12" xml:space="preserve">
    <polygon fill-rule="evenodd" clip-rule="evenodd" fill="#c7c7c7" points="6.5,0 8,5 13,5 9,7.7 10,12 6.5,9.2 3,12 4,7.7 0,5 5,5"/>
    <polygon fill-rule="evenodd" clip-rule="evenodd" fill="#c7c7c7" points="66.5,0 68,5 73,5 69,7.7 70,12 66.5,9.2 63,12 64,7.7 60,5 65,5 "/>
    <polygon fill-rule="evenodd" clip-rule="evenodd" fill="#c7c7c7" points="21.5,0 23,5 28,5 24,7.7 25,12 21.5,9.2 18,12 19,7.7 15,5 20,5 "/>
    <polygon fill-rule="evenodd" clip-rule="evenodd" fill="#c7c7c7" points="51.5,0 53,5 58,5 54,7.7 55,12 51.5,9.2 48,12 49,7.7 45,5 50,5 "/>
    <polygon fill-rule="evenodd" clip-rule="evenodd" fill="#c7c7c7" points="36.5,0 38,5 43,5 39,7.7 40,12 36.5,9.2 33,12 34,7.7 30,5 35,5 "/>
</svg>
