<?xml version="1.0" encoding="utf-8"?>
<!DOCTYPE svg PUBLIC "-//W3C//DTD SVG 1.1//EN" "http://www.w3.org/Graphics/SVG/1.1/DTD/svg11.dtd">
<svg xmlns="http://www.w3.org/2000/svg" xmlns:xlink="http://www.w3.org/1999/xlink" x="0px" y="0px"
width="16px" height="16px" viewBox="0 0 16 16" enable-background="new 0 0 16 16" xml:space="preserve">
	<path fill="#231F20" d="M11.335,0C10.026,0,8.848,0.541,8,1.407C7.153,0.541,5.975,0,4.667,0C2.088,0,0,2.09,0,4.667C0,12,8,16,8,16
	s8-4,8-11.333C16.001,2.09,13.913,0,11.335,0z M8,13.684C6.134,12.49,2,9.321,2,4.667C2,3.196,3.197,2,4.667,2C6,2,8,4,8,4
	s2-2,3.334-2c1.47,0,2.666,1.196,2.666,2.667C14.001,9.321,9.867,12.49,8,13.684z"/>
</svg>
