<?xml version="1.0" encoding="utf-8"?>
<!DOCTYPE svg PUBLIC "-//W3C//DTD SVG 1.1//EN" "http://www.w3.org/Graphics/SVG/1.1/DTD/svg11.dtd">
<svg xmlns="http://www.w3.org/2000/svg" xmlns:xlink="http://www.w3.org/1999/xlink" x="0px" y="0px"
width="16px" height="16px" viewBox="0 0 16 16" enable-background="new 0 0 16 16" xml:space="preserve">
    <path fill="#231F20" d="M11.001,0H5C3.896,0,3,0.896,3,2c0,0.273,0,11.727,0,12c0,1.104,0.896,2,2,2h6c1.104,0,2-0.896,2-2
	c0-0.273,0-11.727,0-12C13.001,0.896,12.105,0,11.001,0z M8,15c-0.552,0-1-0.447-1-1s0.448-1,1-1s1,0.447,1,1S8.553,15,8,15z
	M11.001,12H5V2h6V12z"/>
</svg>
