<?xml version="1.0" encoding="utf-8"?>
<!DOCTYPE svg PUBLIC "-//W3C//DTD SVG 1.1//EN" "http://www.w3.org/Graphics/SVG/1.1/DTD/svg11.dtd">
<svg xmlns="http://www.w3.org/2000/svg" xmlns:xlink="http://www.w3.org/1999/xlink" x="0px" y="0px"
width="16px" height="16px" viewBox="0 0 16 16" enable-background="new 0 0 16 16" xml:space="preserve">
    <path fill="#231F20" d="M12.001,10l-0.5,0.5l-0.79-0.79c0.806-1.021,1.29-2.308,1.29-3.71c0-3.313-2.687-6-6-6C2.687,0,0,2.687,0,6
	s2.687,6,6,6c1.402,0,2.688-0.484,3.71-1.29l0.79,0.79l-0.5,0.5l4,4l2-2L12.001,10z M6,10c-2.206,0-4-1.794-4-4s1.794-4,4-4
	s4,1.794,4,4S8.206,10,6,10z"/>
</svg>
