<?xml version="1.0" encoding="utf-8"?>
<!DOCTYPE svg PUBLIC "-//W3C//DTD SVG 1.1//EN" "http://www.w3.org/Graphics/SVG/1.1/DTD/svg11.dtd">
<svg xmlns="http://www.w3.org/2000/svg" xmlns:xlink="http://www.w3.org/1999/xlink" x="0px" y="0px"
width="16px" height="16px" viewBox="0 0 16 16" enable-background="new 0 0 16 16" xml:space="preserve">
	<g>
		<path fill="#231F20" d="M6,13c0.553,0,1-0.447,1-1V7c0-0.553-0.447-1-1-1S5,6.447,5,7v5C5,12.553,5.447,13,6,13z"/>
		<path fill="#231F20" d="M10,13c0.553,0,1-0.447,1-1V7c0-0.553-0.447-1-1-1S9,6.447,9,7v5C9,12.553,9.447,13,10,13z"/>
		<path fill="#231F20" d="M14,3h-1V1c0-0.552-0.447-1-1-1H4C3.448,0,3,0.448,3,1v2H2C1.447,3,1,3.447,1,4s0.447,1,1,1
		c0,0.273,0,8.727,0,9c0,1.104,0.896,2,2,2h8c1.104,0,2-0.896,2-2c0-0.273,0-8.727,0-9c0.553,0,1-0.447,1-1S14.553,3,14,3z M5,2h6v1
		H5V2z M12,14H4V5h8V14z"/>
	</g>
</svg>
